<?xml version="1.0" encoding="UTF-8"?>
<svg id="Capa_1" data-name="Capa 1" xmlns="http://www.w3.org/2000/svg" viewBox="0 0 800 263.27">
  <defs>
    <style>
      .cls-1 {
        fill: #010101;
      }
    </style>
  </defs>
  <path class="cls-1" d="M107.59,214.44c-48.19,.25-93.84-30.69-93.84-90.79S60.67,30.06,109.11,30.06c22.32,0,44.89,6.85,63.66,21.05l-7.86,36.52c3.3-27.39-17.75-54.53-50.98-54.53-42.1-1.27-77.61,28.15-77.35,82.68,0,66.19,41.59,94.09,76.85,94.09,25.62,0,47.93-14.96,47.93-40.83v-18.51c0-20.8-7.61-23.33-19.02-24.6h53.51c-8.88,1.27-13.7,5.58-14.2,24.6v34.75c-22.83,21.3-48.95,29.17-74.06,29.17Z"/>
  <path class="cls-1" d="M314.03,214.18c-46.41,0-92.57-30.94-92.57-92.57s46.41-92.57,92.57-92.57,92.57,30.69,92.57,92.57-46.41,92.57-92.57,92.57Zm0-1.78c34.75,0,69.49-30.43,69.49-90.79s-34.75-90.79-69.49-90.79-69.49,30.18-69.49,90.79,34.75,90.79,69.49,90.79Z"/>
  <path class="cls-1" d="M532.13,167.52l-7.36,43.12h-96.37v-2.28L506.01,35.38h-29.17c-39.06,0-43.62,32.46-46.41,40.83l7.35-43.11h91.56v2.28l-78.11,172.97h34.75c38.8,0,43.37-32.46,46.16-40.83Z"/>
  <path class="cls-1" d="M750.75,239.29c-41.09,0-89.27-19.78-109.82-85.98h-55.8l-4.82,15.22c-12.17,39.56-2.28,40.58,14.96,42.1h-54.02c20.8-1.78,25.87-6.59,37.79-44.38l42.86-136.7h1.27l37.54,117.93c22.06,70.5,67.71,88.51,101.7,88.51,8.88,0,16.99-1.27,23.59-3.04l.25,1.27c-10.4,3.04-22.57,5.07-35.51,5.07Zm-164.85-88.26h54.53l-26.88-88.51-27.64,88.51Z"/>
</svg>