<svg xmlns="http://www.w3.org/2000/svg" width="25.998" height="32" viewBox="0 0 25.998 32"><defs><style>.a{fill:#cd916d;}</style></defs><path class="a" d="M1744.948,2718.985a12.011,12.011,0,1,0-17.9,0l-4.051,7.051,5.27.765,3.285,4.2,4.444-7.736,4.444,7.736,3.285-4.2,5.27-.765Zm-13.88,9-1.588-3.35-3.589.237,2.533-4.569a11.955,11.955,0,0,0,5.515,2.5ZM1725.99,2711a10.01,10.01,0,1,1,10.01,10A10,10,0,0,1,1725.99,2711Zm16.529,13.64-1.588,3.35-2.871-5.179a11.955,11.955,0,0,0,5.515-2.5l2.533,4.569ZM1736,2704a7,7,0,1,0,7.007,7A7,7,0,0,0,1736,2704Zm0,12a5,5,0,1,1,5.005-5A5,5,0,0,1,1736,2716Z" transform="translate(-1723.001 -2699)"/></svg>