<svg xmlns="http://www.w3.org/2000/svg" width="22" height="32" viewBox="0 0 22 32"><defs><style>.a{fill:#cd916d;}</style></defs><path class="a" d="M2086.25,2715.757c0-6.074-9.1-16-11-16-1.949,0-11,9.925-11,16a11,11,0,0,0,10,10.95v4.051a1,1,0,1,0,2,0v-4.051A11,11,0,0,0,2086.25,2715.757Zm-10,8.942v-3.623l3.712-3.712a.953.953,0,0,0-1.347-1.347l-2.365,2.365v-7.623a1,1,0,0,0-2,0v4.66l-2.373-2.373a.948.948,0,0,0-1.34,1.34l3.085,3.086a.936.936,0,0,0,.628.269v2.948a.938.938,0,0,0,0,.216v3.795a9.011,9.011,0,0,1-8-8.942c0-4.575,6.683-12.4,8.993-13.862,2.315,1.481,9.008,9.326,9.008,13.862A9.011,9.011,0,0,1,2076.25,2724.7Z" transform="translate(-2064.25 -2699.758)"/></svg>